<svg xmlns="http://www.w3.org/2000/svg" xmlns:xlink="http://www.w3.org/1999/xlink" version="1.1" class="marks" width="975" height="594" viewBox="0 0 975 594"><rect width="975" height="594" fill="white"/><g fill="none" stroke-miterlimit="10" transform="translate(54,42)"><g class="mark-group role-frame root" role="graphics-object" aria-roledescription="group mark container"><g transform="translate(0,0)"><path class="background" aria-hidden="true" d="M0.5,0.5h800v500h-800Z" stroke="#ddd"/><g><g class="mark-group role-axis" aria-hidden="true"><g transform="translate(0.5,500.5)"><path class="background" aria-hidden="true" d="M0,0h0v0h0Z" pointer-events="none"/><g><g class="mark-rule role-axis-grid" pointer-events="none"><line transform="translate(0,-500)" x2="0" y2="500" stroke="#ddd" stroke-width="1" opacity="1"/><line transform="translate(50,-500)" x2="0" y2="500" stroke="#ddd" stroke-width="1" opacity="1"/><line transform="translate(100,-500)" x2="0" y2="500" stroke="#ddd" stroke-width="1" opacity="1"/><line transform="translate(150,-500)" x2="0" y2="500" stroke="#ddd" stroke-width="1" opacity="1"/><line transform="translate(200,-500)" x2="0" y2="500" stroke="#ddd" stroke-width="1" opacity="1"/><line transform="translate(250,-500)" x2="0" y2="500" stroke="#ddd" stroke-width="1" opacity="1"/><line transform="translate(300,-500)" x2="0" y2="500" stroke="#ddd" stroke-width="1" opacity="1"/><line transform="translate(350,-500)" x2="0" y2="500" stroke="#ddd" stroke-width="1" opacity="1"/><line transform="translate(400,-500)" x2="0" y2="500" stroke="#ddd" stroke-width="1" opacity="1"/><line transform="translate(450,-500)" x2="0" y2="500" stroke="#ddd" stroke-width="1" opacity="1"/><line transform="translate(500,-500)" x2="0" y2="500" stroke="#ddd" stroke-width="1" opacity="1"/><line transform="translate(550,-500)" x2="0" y2="500" stroke="#ddd" stroke-width="1" opacity="1"/><line transform="translate(600,-500)" x2="0" y2="500" stroke="#ddd" stroke-width="1" opacity="1"/><line transform="translate(650,-500)" x2="0" y2="500" stroke="#ddd" stroke-width="1" opacity="1"/><line transform="translate(700,-500)" x2="0" y2="500" stroke="#ddd" stroke-width="1" opacity="1"/><line transform="translate(750,-500)" x2="0" y2="500" stroke="#ddd" stroke-width="1" opacity="1"/><line transform="translate(800,-500)" x2="0" y2="500" stroke="#ddd" stroke-width="1" opacity="1"/></g></g><path class="foreground" aria-hidden="true" d="" pointer-events="none" display="none"/></g></g><g class="mark-group role-axis" aria-hidden="true"><g transform="translate(0.5,0.5)"><path class="background" aria-hidden="true" d="M0,0h0v0h0Z" pointer-events="none"/><g><g class="mark-rule role-axis-grid" pointer-events="none"><line transform="translate(0,500)" x2="800" y2="0" stroke="#ddd" stroke-width="1" opacity="1"/><line transform="translate(0,450)" x2="800" y2="0" stroke="#ddd" stroke-width="1" opacity="1"/><line transform="translate(0,400)" x2="800" y2="0" stroke="#ddd" stroke-width="1" opacity="1"/><line transform="translate(0,350)" x2="800" y2="0" stroke="#ddd" stroke-width="1" opacity="1"/><line transform="translate(0,300)" x2="800" y2="0" stroke="#ddd" stroke-width="1" opacity="1"/><line transform="translate(0,250)" x2="800" y2="0" stroke="#ddd" stroke-width="1" opacity="1"/><line transform="translate(0,200)" x2="800" y2="0" stroke="#ddd" stroke-width="1" opacity="1"/><line transform="translate(0,150)" x2="800" y2="0" stroke="#ddd" stroke-width="1" opacity="1"/><line transform="translate(0,100)" x2="800" y2="0" stroke="#ddd" stroke-width="1" opacity="1"/><line transform="translate(0,50)" x2="800" y2="0" stroke="#ddd" stroke-width="1" opacity="1"/><line transform="translate(0,0)" x2="800" y2="0" stroke="#ddd" stroke-width="1" opacity="1"/></g></g><path class="foreground" aria-hidden="true" d="" pointer-events="none" display="none"/></g></g><g class="mark-group role-axis" role="graphics-symbol" aria-roledescription="axis" aria-label="X-axis titled 'Alter' for a linear scale with values from 2 to 18"><g transform="translate(0.5,500.5)"><path class="background" aria-hidden="true" d="M0,0h0v0h0Z" pointer-events="none"/><g><g class="mark-rule role-axis-tick" pointer-events="none"><line transform="translate(0,0)" x2="0" y2="5" stroke="#888" stroke-width="1" opacity="1"/><line transform="translate(50,0)" x2="0" y2="5" stroke="#888" stroke-width="1" opacity="1"/><line transform="translate(100,0)" x2="0" y2="5" stroke="#888" stroke-width="1" opacity="1"/><line transform="translate(150,0)" x2="0" y2="5" stroke="#888" stroke-width="1" opacity="1"/><line transform="translate(200,0)" x2="0" y2="5" stroke="#888" stroke-width="1" opacity="1"/><line transform="translate(250,0)" x2="0" y2="5" stroke="#888" stroke-width="1" opacity="1"/><line transform="translate(300,0)" x2="0" y2="5" stroke="#888" stroke-width="1" opacity="1"/><line transform="translate(350,0)" x2="0" y2="5" stroke="#888" stroke-width="1" opacity="1"/><line transform="translate(400,0)" x2="0" y2="5" stroke="#888" stroke-width="1" opacity="1"/><line transform="translate(450,0)" x2="0" y2="5" stroke="#888" stroke-width="1" opacity="1"/><line transform="translate(500,0)" x2="0" y2="5" stroke="#888" stroke-width="1" opacity="1"/><line transform="translate(550,0)" x2="0" y2="5" stroke="#888" stroke-width="1" opacity="1"/><line transform="translate(600,0)" x2="0" y2="5" stroke="#888" stroke-width="1" opacity="1"/><line transform="translate(650,0)" x2="0" y2="5" stroke="#888" stroke-width="1" opacity="1"/><line transform="translate(700,0)" x2="0" y2="5" stroke="#888" stroke-width="1" opacity="1"/><line transform="translate(750,0)" x2="0" y2="5" stroke="#888" stroke-width="1" opacity="1"/><line transform="translate(800,0)" x2="0" y2="5" stroke="#888" stroke-width="1" opacity="1"/></g><g class="mark-text role-axis-label" pointer-events="none"><text text-anchor="start" transform="translate(0,15)" font-family="sans-serif" font-size="10px" fill="#000" opacity="1">2</text><text text-anchor="middle" transform="translate(50,15)" font-family="sans-serif" font-size="10px" fill="#000" opacity="1">3</text><text text-anchor="middle" transform="translate(100,15)" font-family="sans-serif" font-size="10px" fill="#000" opacity="1">4</text><text text-anchor="middle" transform="translate(150,15)" font-family="sans-serif" font-size="10px" fill="#000" opacity="1">5</text><text text-anchor="middle" transform="translate(200,15)" font-family="sans-serif" font-size="10px" fill="#000" opacity="1">6</text><text text-anchor="middle" transform="translate(250,15)" font-family="sans-serif" font-size="10px" fill="#000" opacity="1">7</text><text text-anchor="middle" transform="translate(300,15)" font-family="sans-serif" font-size="10px" fill="#000" opacity="1">8</text><text text-anchor="middle" transform="translate(350,15)" font-family="sans-serif" font-size="10px" fill="#000" opacity="1">9</text><text text-anchor="middle" transform="translate(400,15)" font-family="sans-serif" font-size="10px" fill="#000" opacity="1">10</text><text text-anchor="middle" transform="translate(450,15)" font-family="sans-serif" font-size="10px" fill="#000" opacity="1">11</text><text text-anchor="middle" transform="translate(500,15)" font-family="sans-serif" font-size="10px" fill="#000" opacity="1">12</text><text text-anchor="middle" transform="translate(550,15)" font-family="sans-serif" font-size="10px" fill="#000" opacity="1">13</text><text text-anchor="middle" transform="translate(600,15)" font-family="sans-serif" font-size="10px" fill="#000" opacity="1">14</text><text text-anchor="middle" transform="translate(650,15)" font-family="sans-serif" font-size="10px" fill="#000" opacity="1">15</text><text text-anchor="middle" transform="translate(700,15)" font-family="sans-serif" font-size="10px" fill="#000" opacity="1">16</text><text text-anchor="middle" transform="translate(750,15)" font-family="sans-serif" font-size="10px" fill="#000" opacity="1">17</text><text text-anchor="end" transform="translate(800,15)" font-family="sans-serif" font-size="10px" fill="#000" opacity="1">18</text></g><g class="mark-rule role-axis-domain" pointer-events="none"><line transform="translate(0,0)" x2="800" y2="0" stroke="#888" stroke-width="1" opacity="1"/></g><g class="mark-text role-axis-title" pointer-events="none"><text text-anchor="middle" transform="translate(400,30)" font-family="sans-serif" font-size="11px" font-weight="bold" fill="#000" opacity="1">Alter</text></g></g><path class="foreground" aria-hidden="true" d="" pointer-events="none" display="none"/></g></g><g class="mark-group role-axis" role="graphics-symbol" aria-roledescription="axis" aria-label="Y-axis titled 'Anzahl' for a linear scale with values from 0 to 10"><g transform="translate(0.5,0.5)"><path class="background" aria-hidden="true" d="M0,0h0v0h0Z" pointer-events="none"/><g><g class="mark-rule role-axis-tick" pointer-events="none"><line transform="translate(0,500)" x2="-5" y2="0" stroke="#888" stroke-width="1" opacity="1"/><line transform="translate(0,450)" x2="-5" y2="0" stroke="#888" stroke-width="1" opacity="1"/><line transform="translate(0,400)" x2="-5" y2="0" stroke="#888" stroke-width="1" opacity="1"/><line transform="translate(0,350)" x2="-5" y2="0" stroke="#888" stroke-width="1" opacity="1"/><line transform="translate(0,300)" x2="-5" y2="0" stroke="#888" stroke-width="1" opacity="1"/><line transform="translate(0,250)" x2="-5" y2="0" stroke="#888" stroke-width="1" opacity="1"/><line transform="translate(0,200)" x2="-5" y2="0" stroke="#888" stroke-width="1" opacity="1"/><line transform="translate(0,150)" x2="-5" y2="0" stroke="#888" stroke-width="1" opacity="1"/><line transform="translate(0,100)" x2="-5" y2="0" stroke="#888" stroke-width="1" opacity="1"/><line transform="translate(0,50)" x2="-5" y2="0" stroke="#888" stroke-width="1" opacity="1"/><line transform="translate(0,0)" x2="-5" y2="0" stroke="#888" stroke-width="1" opacity="1"/></g><g class="mark-text role-axis-label" pointer-events="none"><text text-anchor="end" transform="translate(-7,503)" font-family="sans-serif" font-size="10px" fill="#000" opacity="1">0</text><text text-anchor="end" transform="translate(-7,453)" font-family="sans-serif" font-size="10px" fill="#000" opacity="1">1</text><text text-anchor="end" transform="translate(-7,403)" font-family="sans-serif" font-size="10px" fill="#000" opacity="1">2</text><text text-anchor="end" transform="translate(-7,353)" font-family="sans-serif" font-size="10px" fill="#000" opacity="1">3</text><text text-anchor="end" transform="translate(-7,303)" font-family="sans-serif" font-size="10px" fill="#000" opacity="1">4</text><text text-anchor="end" transform="translate(-7,253)" font-family="sans-serif" font-size="10px" fill="#000" opacity="1">5</text><text text-anchor="end" transform="translate(-7,203)" font-family="sans-serif" font-size="10px" fill="#000" opacity="1">6</text><text text-anchor="end" transform="translate(-7,153.00000000000003)" font-family="sans-serif" font-size="10px" fill="#000" opacity="1">7</text><text text-anchor="end" transform="translate(-7,102.99999999999997)" font-family="sans-serif" font-size="10px" fill="#000" opacity="1">8</text><text text-anchor="end" transform="translate(-7,52.999999999999986)" font-family="sans-serif" font-size="10px" fill="#000" opacity="1">9</text><text text-anchor="end" transform="translate(-7,3)" font-family="sans-serif" font-size="10px" fill="#000" opacity="1">10</text></g><g class="mark-rule role-axis-domain" pointer-events="none"><line transform="translate(0,500)" x2="0" y2="-500" stroke="#888" stroke-width="1" opacity="1"/></g><g class="mark-text role-axis-title" pointer-events="none"><text text-anchor="middle" transform="translate(-22.123046875,250) rotate(-90) translate(0,-2)" font-family="sans-serif" font-size="11px" font-weight="bold" fill="#000" opacity="1">Anzahl</text></g></g><path class="foreground" aria-hidden="true" d="" pointer-events="none" display="none"/></g></g><g class="mark-rect role-mark marks" role="graphics-object" aria-roledescription="rect mark container"><path aria-label="Kategorie: Mitglied; Alter: 4; Anzahl: 0" role="graphics-symbol" aria-roledescription="bar" d="M97.5,400h5v0h-5Z" fill="#4c78a8"/><path aria-label="Kategorie: Schnupperkind; Alter: 4; Anzahl: 2" role="graphics-symbol" aria-roledescription="bar" d="M97.5,400h5v100h-5Z" fill="#f58518"/><path aria-label="Kategorie: Mitglied; Alter: 5; Anzahl: 1" role="graphics-symbol" aria-roledescription="bar" d="M147.5,150.00000000000003h5v49.99999999999997h-5Z" fill="#4c78a8"/><path aria-label="Kategorie: Schnupperkind; Alter: 5; Anzahl: 6" role="graphics-symbol" aria-roledescription="bar" d="M147.5,200h5v300h-5Z" fill="#f58518"/><path aria-label="Kategorie: Mitglied; Alter: 6; Anzahl: 0" role="graphics-symbol" aria-roledescription="bar" d="M197.5,300h5v0h-5Z" fill="#4c78a8"/><path aria-label="Kategorie: Schnupperkind; Alter: 6; Anzahl: 4" role="graphics-symbol" aria-roledescription="bar" d="M197.5,300h5v200h-5Z" fill="#f58518"/><path aria-label="Kategorie: Mitglied; Alter: 7; Anzahl: 3" role="graphics-symbol" aria-roledescription="bar" d="M247.5,300h5v150h-5Z" fill="#4c78a8"/><path aria-label="Kategorie: Schnupperkind; Alter: 7; Anzahl: 1" role="graphics-symbol" aria-roledescription="bar" d="M247.5,450h5v50h-5Z" fill="#f58518"/><path aria-label="Kategorie: Mitglied; Alter: 8; Anzahl: 5" role="graphics-symbol" aria-roledescription="bar" d="M297.5,0h5v250h-5Z" fill="#4c78a8"/><path aria-label="Kategorie: Schnupperkind; Alter: 8; Anzahl: 5" role="graphics-symbol" aria-roledescription="bar" d="M297.5,250h5v250h-5Z" fill="#f58518"/><path aria-label="Kategorie: Mitglied; Alter: 9; Anzahl: 3" role="graphics-symbol" aria-roledescription="bar" d="M347.5,350h5v150h-5Z" fill="#4c78a8"/><path aria-label="Kategorie: Schnupperkind; Alter: 9; Anzahl: 0" role="graphics-symbol" aria-roledescription="bar" d="M347.5,500h5v0h-5Z" fill="#f58518"/><path aria-label="Kategorie: Mitglied; Alter: 10; Anzahl: 5" role="graphics-symbol" aria-roledescription="bar" d="M397.5,250h5v250h-5Z" fill="#4c78a8"/><path aria-label="Kategorie: Schnupperkind; Alter: 10; Anzahl: 0" role="graphics-symbol" aria-roledescription="bar" d="M397.5,500h5v0h-5Z" fill="#f58518"/><path aria-label="Kategorie: Mitglied; Alter: 11; Anzahl: 3" role="graphics-symbol" aria-roledescription="bar" d="M447.5,250h5v150h-5Z" fill="#4c78a8"/><path aria-label="Kategorie: Schnupperkind; Alter: 11; Anzahl: 2" role="graphics-symbol" aria-roledescription="bar" d="M447.5,400h5v100h-5Z" fill="#f58518"/><path aria-label="Kategorie: Mitglied; Alter: 12; Anzahl: 6" role="graphics-symbol" aria-roledescription="bar" d="M497.5,150.00000000000003h5v300h-5Z" fill="#4c78a8"/><path aria-label="Kategorie: Schnupperkind; Alter: 12; Anzahl: 1" role="graphics-symbol" aria-roledescription="bar" d="M497.5,450h5v50h-5Z" fill="#f58518"/><path aria-label="Kategorie: Mitglied; Alter: 13; Anzahl: 6" role="graphics-symbol" aria-roledescription="bar" d="M547.5,99.99999999999997h5v300h-5Z" fill="#4c78a8"/><path aria-label="Kategorie: Schnupperkind; Alter: 13; Anzahl: 2" role="graphics-symbol" aria-roledescription="bar" d="M547.5,400h5v100h-5Z" fill="#f58518"/><path aria-label="Kategorie: Mitglied; Alter: 14; Anzahl: 3" role="graphics-symbol" aria-roledescription="bar" d="M597.5,300h5v150h-5Z" fill="#4c78a8"/><path aria-label="Kategorie: Schnupperkind; Alter: 14; Anzahl: 1" role="graphics-symbol" aria-roledescription="bar" d="M597.5,450h5v50h-5Z" fill="#f58518"/><path aria-label="Kategorie: Mitglied; Alter: 15; Anzahl: 7" role="graphics-symbol" aria-roledescription="bar" d="M647.5,150.00000000000003h5v350h-5Z" fill="#4c78a8"/><path aria-label="Kategorie: Schnupperkind; Alter: 15; Anzahl: 0" role="graphics-symbol" aria-roledescription="bar" d="M647.5,500h5v0h-5Z" fill="#f58518"/><path aria-label="Kategorie: Mitglied; Alter: 16; Anzahl: 3" role="graphics-symbol" aria-roledescription="bar" d="M697.5,350h5v150h-5Z" fill="#4c78a8"/><path aria-label="Kategorie: Schnupperkind; Alter: 16; Anzahl: 0" role="graphics-symbol" aria-roledescription="bar" d="M697.5,500h5v0h-5Z" fill="#f58518"/><path aria-label="Kategorie: Mitglied; Alter: 17; Anzahl: 8" role="graphics-symbol" aria-roledescription="bar" d="M747.5,99.99999999999997h5v400h-5Z" fill="#4c78a8"/><path aria-label="Kategorie: Schnupperkind; Alter: 17; Anzahl: 0" role="graphics-symbol" aria-roledescription="bar" d="M747.5,500h5v0h-5Z" fill="#f58518"/></g><g class="mark-group role-legend" role="graphics-symbol" aria-roledescription="legend" aria-label="Symbol legend titled 'Kategorie' for fill color with 2 values: Mitglied, Schnupperkind"><g transform="translate(818,0)"><path class="background" aria-hidden="true" d="M0,0h83v40h-83Z" pointer-events="none"/><g><g class="mark-group role-legend-entry"><g transform="translate(0,16)"><path class="background" aria-hidden="true" d="M0,0h0v0h0Z" pointer-events="none"/><g><g class="mark-group role-scope" role="graphics-object" aria-roledescription="group mark container"><g transform="translate(0,0)"><path class="background" aria-hidden="true" d="M0,0h82.7138671875v11h-82.7138671875Z" pointer-events="none" opacity="1"/><g><g class="mark-symbol role-legend-symbol" pointer-events="none"><path transform="translate(6,6)" d="M-5,-5h10v10h-10Z" fill="#4c78a8" stroke-width="1.5" opacity="1"/></g><g class="mark-text role-legend-label" pointer-events="none"><text text-anchor="start" transform="translate(16,9)" font-family="sans-serif" font-size="10px" fill="#000" opacity="1">Mitglied</text></g></g><path class="foreground" aria-hidden="true" d="" pointer-events="none" display="none"/></g><g transform="translate(0,13)"><path class="background" aria-hidden="true" d="M0,0h82.7138671875v11h-82.7138671875Z" pointer-events="none" opacity="1"/><g><g class="mark-symbol role-legend-symbol" pointer-events="none"><path transform="translate(6,6)" d="M-5,-5h10v10h-10Z" fill="#f58518" stroke-width="1.5" opacity="1"/></g><g class="mark-text role-legend-label" pointer-events="none"><text text-anchor="start" transform="translate(16,9)" font-family="sans-serif" font-size="10px" fill="#000" opacity="1">Schnupperkind</text></g></g><path class="foreground" aria-hidden="true" d="" pointer-events="none" display="none"/></g></g></g><path class="foreground" aria-hidden="true" d="" pointer-events="none" display="none"/></g></g><g class="mark-text role-legend-title" pointer-events="none"><text text-anchor="start" transform="translate(0,9)" font-family="sans-serif" font-size="11px" font-weight="bold" fill="#000" opacity="1">Kategorie</text></g></g><path class="foreground" aria-hidden="true" d="" pointer-events="none" display="none"/></g></g><g class="mark-group role-title"><g transform="translate(400,-22)"><path class="background" aria-hidden="true" d="M0,0h0v0h0Z" pointer-events="none"/><g><g class="mark-text role-title-text" role="graphics-symbol" aria-roledescription="title" aria-label="Title text 'TSG Tennis-Jugend 2022 (4-17 Jahre)'" pointer-events="none"><text text-anchor="middle" transform="translate(0,10)" font-family="sans-serif" font-size="13px" font-weight="bold" fill="#000" opacity="1">TSG Tennis-Jugend 2022 (4-17 Jahre)</text></g></g><path class="foreground" aria-hidden="true" d="" pointer-events="none" display="none"/></g></g></g><path class="foreground" aria-hidden="true" d="" display="none"/></g></g></g></svg>